<svg id="visual" viewBox="0 0 900 600" width="900" height="600" xmlns="http://www.w3.org/2000/svg" xmlns:xlink="http://www.w3.org/1999/xlink" version="1.1"><rect x="0" y="0" width="900" height="600" fill="#8994a5"></rect><defs><linearGradient id="grad1_0" x1="33.3%" y1="100%" x2="100%" y2="0%"><stop offset="20%" stop-color="#8994a5" stop-opacity="1"></stop><stop offset="80%" stop-color="#8994a5" stop-opacity="1"></stop></linearGradient></defs><defs><linearGradient id="grad2_0" x1="0%" y1="100%" x2="66.7%" y2="0%"><stop offset="20%" stop-color="#8994a5" stop-opacity="1"></stop><stop offset="80%" stop-color="#8994a5" stop-opacity="1"></stop></linearGradient></defs><g transform="translate(900, 600)"><path d="M-486.7 0C-488.2 -71.5 -489.6 -143 -449.7 -186.3C-409.8 -229.6 -328.6 -244.7 -277.9 -277.9C-227.2 -311.1 -206.9 -362.2 -165.7 -400C-124.5 -437.9 -62.2 -462.3 0 -486.7L0 0Z" fill="#494a6c"></path></g><g transform="translate(0, 0)"><path d="M486.7 0C459.7 55.4 432.6 110.8 413 171.1C393.4 231.4 381.3 296.6 344.2 344.2C307 391.8 244.8 421.7 183.3 442.5C121.8 463.4 60.9 475.1 0 486.7L0 0Z" fill="#494a6c"></path></g></svg>