<svg id="visual" viewBox="0 0 900 600" width="900" height="600" xmlns="http://www.w3.org/2000/svg" xmlns:xlink="http://www.w3.org/1999/xlink" version="1.1"><path d="M0 91L13.7 87C27.3 83 54.7 75 82 87C109.3 99 136.7 131 163.8 131C191 131 218 99 245.2 96C272.3 93 299.7 119 327 132C354.3 145 381.7 145 409 137C436.3 129 463.7 113 491 114C518.3 115 545.7 133 573 132C600.3 131 627.7 111 654.8 107C682 103 709 115 736.2 119C763.3 123 790.7 119 818 121C845.3 123 872.7 131 886.3 135L900 139L900 0L886.3 0C872.7 0 845.3 0 818 0C790.7 0 763.3 0 736.2 0C709 0 682 0 654.8 0C627.7 0 600.3 0 573 0C545.7 0 518.3 0 491 0C463.7 0 436.3 0 409 0C381.7 0 354.3 0 327 0C299.7 0 272.3 0 245.2 0C218 0 191 0 163.8 0C136.7 0 109.3 0 82 0C54.7 0 27.3 0 13.7 0L0 0Z" fill="#6b72bb"></path><path d="M0 253L13.7 246C27.3 239 54.7 225 82 224C109.3 223 136.7 235 163.8 240C191 245 218 243 245.2 243C272.3 243 299.7 245 327 248C354.3 251 381.7 255 409 246C436.3 237 463.7 215 491 224C518.3 233 545.7 273 573 283C600.3 293 627.7 273 654.8 274C682 275 709 297 736.2 310C763.3 323 790.7 327 818 335C845.3 343 872.7 355 886.3 361L900 367L900 137L886.3 133C872.7 129 845.3 121 818 119C790.7 117 763.3 121 736.2 117C709 113 682 101 654.8 105C627.7 109 600.3 129 573 130C545.7 131 518.3 113 491 112C463.7 111 436.3 127 409 135C381.7 143 354.3 143 327 130C299.7 117 272.3 91 245.2 94C218 97 191 129 163.8 129C136.7 129 109.3 97 82 85C54.7 73 27.3 81 13.7 85L0 89Z" fill="#525bae"></path><path d="M0 331L13.7 318C27.3 305 54.7 279 82 274C109.3 269 136.7 285 163.8 294C191 303 218 305 245.2 302C272.3 299 299.7 291 327 291C354.3 291 381.7 299 409 297C436.3 295 463.7 283 491 294C518.3 305 545.7 339 573 352C600.3 365 627.7 357 654.8 358C682 359 709 369 736.2 377C763.3 385 790.7 391 818 401C845.3 411 872.7 425 886.3 432L900 439L900 365L886.3 359C872.7 353 845.3 341 818 333C790.7 325 763.3 321 736.2 308C709 295 682 273 654.8 272C627.7 271 600.3 291 573 281C545.7 271 518.3 231 491 222C463.7 213 436.3 235 409 244C381.7 253 354.3 249 327 246C299.7 243 272.3 241 245.2 241C218 241 191 243 163.8 238C136.7 233 109.3 221 82 222C54.7 223 27.3 237 13.7 244L0 251Z" fill="#3844a0"></path><path d="M0 427L13.7 419C27.3 411 54.7 395 82 386C109.3 377 136.7 375 163.8 380C191 385 218 397 245.2 393C272.3 389 299.7 369 327 364C354.3 359 381.7 369 409 375C436.3 381 463.7 383 491 402C518.3 421 545.7 457 573 471C600.3 485 627.7 477 654.8 473C682 469 709 469 736.2 477C763.3 485 790.7 501 818 507C845.3 513 872.7 509 886.3 507L900 505L900 437L886.3 430C872.7 423 845.3 409 818 399C790.7 389 763.3 383 736.2 375C709 367 682 357 654.8 356C627.7 355 600.3 363 573 350C545.7 337 518.3 303 491 292C463.7 281 436.3 293 409 295C381.7 297 354.3 289 327 289C299.7 289 272.3 297 245.2 300C218 303 191 301 163.8 292C136.7 283 109.3 267 82 272C54.7 277 27.3 303 13.7 316L0 329Z" fill="#2e3b8b"></path><path d="M0 601L13.7 601C27.3 601 54.7 601 82 601C109.3 601 136.7 601 163.8 601C191 601 218 601 245.2 601C272.3 601 299.7 601 327 601C354.3 601 381.7 601 409 601C436.3 601 463.7 601 491 601C518.3 601 545.7 601 573 601C600.3 601 627.7 601 654.8 601C682 601 709 601 736.2 601C763.3 601 790.7 601 818 601C845.3 601 872.7 601 886.3 601L900 601L900 503L886.3 505C872.7 507 845.3 511 818 505C790.7 499 763.3 483 736.2 475C709 467 682 467 654.8 471C627.7 475 600.3 483 573 469C545.7 455 518.3 419 491 400C463.7 381 436.3 379 409 373C381.7 367 354.3 357 327 362C299.7 367 272.3 387 245.2 391C218 395 191 383 163.8 378C136.7 373 109.3 375 82 384C54.7 393 27.3 409 13.7 417L0 425Z" fill="#263376"></path></svg>